<?xml version="1.0" encoding="utf-8"?>
<!-- Generator: Adobe Illustrator 26.0.2, SVG Export Plug-In . SVG Version: 6.00 Build 0)  -->
<svg version="1.1" id="Layer_1" xmlns="http://www.w3.org/2000/svg" xmlns:xlink="http://www.w3.org/1999/xlink" x="0px" y="0px"
	 viewBox="0 0 512 512" style="enable-background:new 0 0 512 512;" xml:space="preserve">
<style type="text/css">
	.st0{fill:#030104;}
</style>
<g>
	<g>
		<path d="M121.2,491.9c-2.5,0-5.2-0.6-7.6-1.8c-5.7-2.8-9.3-8.7-9.3-15.1v-85.4C47.3,381.4,3.3,332.2,3.3,272.8V138.1
			C3.3,73,56.1,20.1,121.2,20.1h269.6c65.1,0,117.9,52.9,117.9,117.9v134.8c0,65.1-52.9,117.9-117.9,117.9H261.6l-130.3,97.7
			C128.4,490.7,124.8,491.9,121.2,491.9z M121.2,53.8C74.8,53.8,37,91.6,37,138.1v134.8c0,46.4,37.8,84.2,84.2,84.2
			c9.3,0,16.8,7.6,16.8,16.8v67.4l107.8-80.9c2.9-2.2,6.4-3.4,10.1-3.4h134.8c46.4,0,84.2-37.8,84.2-84.2V138.1
			c0-46.4-37.8-84.2-84.2-84.2H121.2z"/>
	</g>
	<g>
		<path d="M256,256c-27.9,0-50.5-22.6-50.5-50.5s22.6-50.5,50.5-50.5s50.5,22.6,50.5,50.5S283.9,256,256,256z M256,182.9
			c-12.4,0-22.6,10.1-22.6,22.6S243.6,228,256,228c12.4,0,22.6-10.1,22.6-22.6S268.4,182.9,256,182.9z"/>
	</g>
	<g>
		<path d="M121.2,256c-27.9,0-50.5-22.6-50.5-50.5s22.6-50.5,50.5-50.5s50.5,22.6,50.5,50.5S149.1,256,121.2,256z M121.2,182.9
			c-12.4,0-22.6,10.1-22.6,22.6s10.1,22.6,22.6,22.6s22.6-10.1,22.6-22.6S133.6,182.9,121.2,182.9z"/>
	</g>
	<g>
		<path d="M390.8,256c-27.9,0-50.5-22.6-50.5-50.5s22.6-50.5,50.5-50.5c27.9,0,50.5,22.6,50.5,50.5S418.7,256,390.8,256z
			 M390.8,183.7c-12,0-21.7,9.8-21.7,21.7c0,12,9.8,21.7,21.7,21.7s21.7-9.8,21.7-21.7C412.5,193.5,402.7,183.7,390.8,183.7z"/>
	</g>
</g>
</svg>
