<?xml version="1.0" encoding="utf-8"?>
<!-- Generator: Adobe Illustrator 26.0.2, SVG Export Plug-In . SVG Version: 6.00 Build 0)  -->
<svg version="1.1" id="Layer_1" xmlns="http://www.w3.org/2000/svg" xmlns:xlink="http://www.w3.org/1999/xlink" x="0px" y="0px"
	 viewBox="0 0 512 512" style="enable-background:new 0 0 512 512;" xml:space="preserve">
<style type="text/css">
	.st0{fill:#FFFFFF;}
</style>
<g>
	<g>
		<g>
			<path class="st0" d="M441.4,192.2h-234c-4.1,0-7.4,3.3-7.4,7.4s3.3,7.4,7.4,7.4h234c4.1,0,7.4-3.3,7.4-7.4
				S445.5,192.2,441.4,192.2z"/>
			<path class="st0" d="M441.4,248.6h-234c-4.1,0-7.4,3.3-7.4,7.4s3.3,7.4,7.4,7.4h234c4.1,0,7.4-3.3,7.4-7.4
				S445.5,248.6,441.4,248.6z"/>
			<path class="st0" d="M441.4,305h-234c-4.1,0-7.4,3.3-7.4,7.4s3.3,7.4,7.4,7.4h234c4.1,0,7.4-3.3,7.4-7.4S445.5,305,441.4,305z"/>
			<path class="st0" d="M464.8,127.7H184c-23.7,0-42.9,19.2-42.9,42.9v176.6c0,23.7,19.2,42.9,42.9,42.9h196.9
				c2.1,0,4.1,0.9,5.4,2.6l63.6,80.5c2.5,3.2,6.2,4.9,10,4.9c1.4,0,2.9-0.2,4.3-0.7c5.2-1.8,8.6-6.6,8.6-12.1v-75.9
				c19.9-3.7,35.1-21.3,35.1-42.2V170.6C507.7,147,488.5,127.7,464.8,127.7L464.8,127.7z M493,347.2c0,15.3-12.5,27.9-27.8,28.1
				c-4,0.1-7.3,3.3-7.3,7.4v77l-60.2-76.2c-4.1-5.2-10.3-8.2-16.9-8.2H184c-15.5,0-28.1-12.6-28.1-28.1V170.6
				c0-15.5,12.6-28.1,28.1-28.1h280.9c15.5,0,28.1,12.6,28.1,28.1V347.2z"/>
			<path class="st0" d="M112.9,249.7c-5,0.7-9.6,3.3-12.7,7.3l-50.7,64.1v-64.3c0-4-3.2-7.3-7.3-7.4C29.4,249.3,19,238.7,19,225.9
				V72.2c0-13,10.6-23.5,23.5-23.5h244.5c13,0,23.5,10.6,23.5,23.5v28.5c0,4.1,3.3,7.4,7.4,7.4s7.4-3.3,7.4-7.4V72.2
				c0-21.1-17.2-38.3-38.3-38.3H42.6C21.4,33.9,4.3,51,4.3,72.2v153.8c0,18.4,13.1,33.9,30.5,37.5v65.3c0,5.2,3.2,9.7,8.1,11.5
				c1.3,0.5,2.7,0.7,4.1,0.7c3.6,0,7.1-1.6,9.4-4.6l55.3-70.1c0.8-1,1.9-1.7,3.2-1.9c4-0.6,6.8-4.3,6.3-8.3
				C120.7,251.9,117,249.1,112.9,249.7L112.9,249.7z"/>
		</g>
	</g>
</g>
</svg>
