<?xml version="1.0" encoding="utf-8"?>
<!-- Generator: Adobe Illustrator 26.0.2, SVG Export Plug-In . SVG Version: 6.00 Build 0)  -->
<svg version="1.1" id="Layer_1" xmlns="http://www.w3.org/2000/svg" xmlns:xlink="http://www.w3.org/1999/xlink" x="0px" y="0px"
	 viewBox="0 0 512 512" style="enable-background:new 0 0 512 512;" xml:space="preserve">
<style type="text/css">
	.st0{fill:#FFFFFF;}
</style>
<g>
	<path class="st0" d="M467.5,319.5c-6.9,0-12.5,5.6-12.5,12.5v110.6c0,20.6-16.7,37.3-37.4,37.4H68.3c-20.6,0-37.3-16.7-37.4-37.4
		V118c0-20.6,16.7-37.3,37.4-37.4h110.6c6.9,0,12.5-5.6,12.5-12.5c0-6.9-5.6-12.5-12.5-12.5H68.3C33.9,55.8,6,83.6,6,118v324.5
		c0,34.4,27.9,62.2,62.3,62.3h349.4c34.4,0,62.2-27.9,62.3-62.3V331.9C479.9,325,474.4,319.5,467.5,319.5z"/>
	<path class="st0" d="M475,23.7c-21.9-21.9-57.4-21.9-79.2,0L173.6,245.8c-1.5,1.5-2.6,3.4-3.2,5.5l-29.2,105.5
		c-1.2,4.3,0,9,3.2,12.1c3.2,3.2,7.8,4.4,12.1,3.2L262,342.9c2.1-0.6,4-1.7,5.5-3.2l222.2-222.2c21.9-21.9,21.9-57.3,0-79.2
		L475,23.7z M200.7,253.9L382.5,72.1l58.6,58.6L259.4,312.6L200.7,253.9z M189,277.4l46.8,46.9l-64.8,18L189,277.4z M472,99.9
		l-13.2,13.2l-58.6-58.6l13.2-13.2c12.2-12.2,31.9-12.2,44,0L472,55.9C484.1,68.1,484.1,87.8,472,99.9z"/>
</g>
</svg>
