<?xml version="1.0" encoding="utf-8"?>
<!-- Generator: Adobe Illustrator 26.3.1, SVG Export Plug-In . SVG Version: 6.00 Build 0)  -->
<svg version="1.1" id="Layer_1" xmlns="http://www.w3.org/2000/svg" xmlns:xlink="http://www.w3.org/1999/xlink" x="0px" y="0px"
	 viewBox="0 0 100 100" style="enable-background:new 0 0 100 100;" xml:space="preserve">
<g>
	<path d="M0.01,99.97c0-0.23,0-0.44,0-0.66c0-3.27,0.01-6.55-0.01-9.82c0-0.44,0.13-0.73,0.44-1.03
		c13.94-13.93,27.88-27.87,41.83-41.8c0.41-0.41,0.48-0.69,0.23-1.23c-2.29-4.89-3.65-10.03-3.54-15.45
		c0.18-8.21,3.29-15.25,9.1-21.05c4.98-4.97,11.01-7.91,18-8.7c8.57-0.97,16.22,1.44,22.85,6.91c6.02,4.98,9.67,11.42,10.77,19.16
		c1.28,9.01-1.2,17.02-7.03,23.95c-4.84,5.75-11.06,9.18-18.47,10.46c-3.82,0.66-7.6,0.4-11.34-0.58c-0.44-0.11-0.71-0.05-1.03,0.28
		c-5.63,5.65-11.27,11.28-16.9,16.93c-0.3,0.3-0.6,0.44-1.03,0.44c-3.29-0.02-6.58-0.01-9.87-0.01c-0.2,0-0.39,0-0.64,0
		c0,3.71,0,7.37,0,11.09c-3.72,0-7.38,0-11.09,0c0,3.72,0,7.39,0,11.09C14.85,99.97,7.48,99.97,0.01,99.97z M77.84,11.13
		c-4.57-0.03-8.34,3.67-8.38,8.2c-0.04,4.47,3.82,8.4,8.27,8.45c4.46,0.04,8.38-3.86,8.4-8.37C86.16,14.88,82.41,11.15,77.84,11.13z
		"/>
</g>
</svg>
