<?xml version="1.0" encoding="utf-8"?>
<!-- Generator: Adobe Illustrator 26.1.0, SVG Export Plug-In . SVG Version: 6.00 Build 0)  -->
<svg version="1.1" id="Capa_1" xmlns="http://www.w3.org/2000/svg" xmlns:xlink="http://www.w3.org/1999/xlink" x="0px" y="0px"
	 viewBox="0 0 289 204" style="enable-background:new 0 0 289 204;" xml:space="preserve">
<style type="text/css">
	.st0{fill:#6A7980;}
	.st1{fill:#61BA59;}
</style>
<g>
	<path class="st0" d="M62.7,123.8H70v41.6h-7.3V123.8z"/>
	<path class="st0" d="M81.1,123.8h18.6c5.2,0,9.3,1.5,12,4.2c2.2,2.3,3.4,5.4,3.4,9v0.1c0,6.8-4.1,10.9-9.9,12.6l11.2,15.8h-8.6
		L97.6,151h-9.2v14.5h-7.3V123.8z M99.2,144.5c5.2,0,8.6-2.7,8.6-7v-0.1c0-4.5-3.2-6.9-8.6-6.9H88.5v14H99.2z"/>
	<path class="st0" d="M134.2,130.6H121v-6.8h33.8v6.8h-13.2v34.8h-7.4V130.6z"/>
	<path class="st0" d="M202.1,123.8h18.5c5.2,0,9.3,1.5,12,4.2c2.2,2.3,3.5,5.4,3.5,9v0.1c0,6.8-4.1,10.9-9.9,12.6l11.2,15.8h-8.6
		L218.6,151h-9.2v14.5h-7.3V123.8z M220.2,144.5c5.2,0,8.6-2.7,8.6-7v-0.1c0-4.5-3.2-6.9-8.6-6.9h-10.6v14H220.2z"/>
	<path class="st0" d="M245.1,123.8H276v6.5h-23.5v10.8h20.9v6.5h-20.9v11.2h23.8v6.5h-31.2V123.8z"/>
	<polygon class="st0" points="176.7,123.5 169.9,123.5 169.9,123.6 187.3,165.5 195,165.5 	"/>
	<polygon class="st0" points="31,165.5 37.8,165.5 37.8,165.4 20.4,123.5 12.7,123.5 	"/>
</g>
<path class="st0" d="M101.5,54.5c-0.5,0-0.9-0.3-1.2-0.8v9.8c0.4,0.1,0.8,0.1,1.2,0.1h101.2v-9.1H101.5z"/>
<g>
	<g>
		<path class="st1" d="M56.6,199.6v-24.2H61v9.4h11.6v-9.4h4.3v24.2h-4.3v-10.8H61v10.8H56.6z"/>
		<path class="st1" d="M89.7,199.6v-24.2h15.4v3.9H94.1v5.8h10.4v3.9H94.1v6.7h11.3v3.9H89.7z"/>
		<path class="st1" d="M118.2,199.6l10.1-24.2h3.7l10.1,24.2h-4.6l-2-4.8h-10.8l-2,4.8H118.2z M126.1,191.2h8.1l-4-9.9L126.1,191.2z
			"/>
		<path class="st1" d="M155,199.6v-24.2h4.3v20.3h9.6v3.9H155z"/>
		<path class="st1" d="M188.3,199.6v-20.3h-6.6v-3.9h17.5v3.9h-6.6v20.3H188.3z"/>
		<path class="st1" d="M212.1,199.6v-24.2h4.3v9.4H228v-9.4h4.3v24.2H228v-10.8h-11.6v10.8H212.1z"/>
	</g>
</g>
<polygon class="st1" points="152.4,165.5 159.9,165.5 173.8,132.8 166.7,132.8 "/>
<polygon class="st1" points="55.2,123.5 47.8,123.5 33.9,156.2 41,156.2 "/>
<path class="st1" d="M84.4,48.6h96.4v-9.1H93.6l25.3-25.3c0.6-0.6,1.3-0.7,1.6-0.7c0.4,0,1,0.1,1.6,0.7l21.6,21.6h12.9l-28-28
	c-2.1-2.1-5-3.3-8.1-3.3c-3.1,0-5.9,1.2-8.1,3.3L80.5,39.6c0,0,0,0,0,0v0l-3.8,3.8c-2.1,2.1-3.3,5-3.3,8.1c0,3.1,1.2,5.9,3.3,8.1
	l35.7,35.7h0c2.1,2.1,5,3.3,8.1,3.3c3.1,0,5.9-1.2,8.1-3.3l10.5-10.4l-6.2-6.7l-10.8,10.7c-0.6,0.6-1.3,0.7-1.6,0.7
	c-0.4,0-1-0.1-1.6-0.7L83.2,53c-0.6-0.6-0.7-1.3-0.7-1.6c0-0.4,0.1-1,0.7-1.6L84.4,48.6z"/>
<g>
	<polygon class="st0" points="143.3,30.8 143.3,32.5 144.1,31.6 	"/>
	<path class="st0" d="M206.9,43.4L171.3,7.7c-2.1-2.1-5-3.3-8.1-3.3c-3.1,0-5.9,1.2-8.1,3.3l-11,11l6.4,6.4l11-11
		c0.6-0.6,1.3-0.7,1.6-0.7c0.4,0,1,0.1,1.6,0.7l35.7,35.7c0.9,0.9,0.9,2.4,0,3.2l-35.7,35.7c-0.6,0.6-1.3,0.7-1.6,0.7
		c-0.4,0-1-0.1-1.6-0.7l-21.8-21.8h-12.9l28.2,28.2c2.1,2.1,5,3.3,8.1,3.3s5.9-1.2,8.1-3.3l35.7-35.7
		C211.4,55,211.4,47.8,206.9,43.4z"/>
</g>
</svg>
