<?xml version="1.0" encoding="utf-8"?>
<!-- Generator: Adobe Illustrator 26.1.0, SVG Export Plug-In . SVG Version: 6.00 Build 0)  -->
<svg version="1.1" id="Layer_1" xmlns="http://www.w3.org/2000/svg" xmlns:xlink="http://www.w3.org/1999/xlink" x="0px" y="0px"
	 viewBox="0 0 770.2 178.2" style="enable-background:new 0 0 770.2 178.2;" xml:space="preserve">
<style type="text/css">
	.st0{fill:#1D1D41;}
	.st1{clip-path:url(#SVGID_00000147208117776547821490000012006905065773922951_);}
	.st2{clip-path:url(#SVGID_00000098215842679583662980000014785320235915823523_);fill:#FF9C84;}
	.st3{clip-path:url(#SVGID_00000086668050203674814670000016657960641722485388_);}
	.st4{clip-path:url(#SVGID_00000077297539055422573910000008655342191132459710_);fill:#F95932;}
	.st5{clip-path:url(#SVGID_00000096029034312060366690000013751748893925976196_);}
	.st6{clip-path:url(#SVGID_00000077297584495577469890000002003461637144702852_);fill:#0423DD;}
	.st7{clip-path:url(#SVGID_00000048484746235688693460000010144293799456945838_);}
	.st8{clip-path:url(#SVGID_00000129168470097784718460000012652877612349612945_);fill:#F95932;}
	.st9{clip-path:url(#SVGID_00000070818985525521327820000017539656714322928566_);}
	.st10{clip-path:url(#SVGID_00000065755962934697796750000008991451002869352593_);fill:#F95932;}
	.st11{clip-path:url(#SVGID_00000049179539525905421640000012772989568871335338_);}
	.st12{clip-path:url(#SVGID_00000151544092285802104120000016024323475213835670_);fill:#F95932;}
	.st13{clip-path:url(#SVGID_00000087374445773528093100000004212736876193737888_);}
	.st14{clip-path:url(#SVGID_00000116232611266499021030000007277362355460562575_);fill:#8A9AFF;}
	.st15{clip-path:url(#SVGID_00000115496365609540044170000010473591379349162666_);}
	.st16{clip-path:url(#SVGID_00000008847888927535290130000016706112208681149589_);fill:#FF9C84;}
	.st17{clip-path:url(#SVGID_00000048471179060032327350000008126196712575540660_);}
	.st18{clip-path:url(#SVGID_00000167364012063937287640000002831284327962279304_);fill:#8092FF;}
	.st19{clip-path:url(#SVGID_00000161597835674313960060000004034212082709181829_);}
	.st20{clip-path:url(#SVGID_00000141437507730600446430000014927327244337473666_);fill:#F95932;}
	.st21{clip-path:url(#SVGID_00000157989529313299168080000014668160698764018620_);}
	.st22{clip-path:url(#SVGID_00000055708210127090309520000010900562443265502122_);fill:#FF9C84;}
	.st23{clip-path:url(#SVGID_00000108989061514629500400000005352843153810325428_);}
	.st24{clip-path:url(#SVGID_00000003085832724242788510000003716898120191533701_);fill:#0423DD;}
	.st25{fill:#6BB86E;}
	.st26{fill:#8092A1;}
</style>
<g>
	<path class="st0" d="M163.1,106.8l6.6-1L198,25h19.1l28.1,80.8l6.6,1V118h-31.7v-11.2l6.4-1.1l-4.1-12.8h-30.1l-4.1,12.8l6.4,1.1
		V118h-31.7V106.8z M196.8,79.2h21.3l-10.5-32.7h-0.4L196.8,79.2z"/>
	<path class="st0" d="M252.6,29.6V18.4h28.6v86.5l9,1.9V118h-36.6v-11.2l9-1.9V31.5L252.6,29.6z"/>
	<path class="st0" d="M324.2,119.3c-10,0-17.9-3.2-23.9-9.6c-6-6.4-8.9-14.5-8.9-24.3v-2.6c0-10.3,2.8-18.7,8.5-25.3
		c5.6-6.6,13.2-9.9,22.7-9.9c9.3,0,16.6,2.8,21.7,8.4c5.1,5.6,7.7,13.2,7.7,22.8V89h-41.2l-0.1,0.4c0.3,4.6,1.9,8.3,4.6,11.2
		c2.7,2.9,6.4,4.4,11,4.4c4.1,0,7.6-0.4,10.3-1.2c2.7-0.8,5.7-2.1,8.9-3.9l5,11.5c-2.9,2.3-6.5,4.1-11.1,5.7
		C334.9,118.5,329.8,119.3,324.2,119.3z M322.6,62c-3.4,0-6.2,1.3-8.2,4c-2,2.6-3.2,6.1-3.7,10.4l0.2,0.3h22.9V75
		c0-4-0.9-7.1-2.8-9.5C329.1,63.2,326.3,62,322.6,62z"/>
	<path class="st0" d="M358.3,106.8l8.9-1.9V62l-9.9-1.9V48.9h27.3l0.8,10.1c1.6-3.6,3.7-6.4,6.3-8.4c2.6-2,5.5-3,8.9-3
		c1,0,2,0.1,3.1,0.2c1.1,0.1,2,0.3,2.7,0.5l-2,17l-7.7-0.2c-2.7,0-5,0.5-6.8,1.6c-1.8,1.1-3.1,2.6-4.1,4.5v33.6l8.9,1.9V118h-36.5
		V106.8z"/>
	<path class="st0" d="M437.1,32v16.9h12.1V62h-12.1v35.2c0,2.7,0.6,4.6,1.7,5.7c1.1,1.1,2.6,1.7,4.5,1.7c1.3,0,2.4-0.1,3.4-0.2
		c1-0.1,2-0.3,3.2-0.5l1.6,13.5c-2.1,0.6-4.1,1.1-6.2,1.4c-2,0.3-4.3,0.5-6.6,0.5c-6.4,0-11.4-1.8-14.8-5.3
		c-3.5-3.5-5.2-9.1-5.2-16.8V62h-10.1V48.9h10.1V32H437.1z"/>
	<path class="st0" d="M542.3,77.1h-31.5v26.6h30l0.8-11.1h14.2V118h-73.5v-11.2l9.9-1.9V38.2l-9.9-1.9V25h9.9h63.5v25.5h-14.3
		l-0.8-11.1h-29.7v23.4h31.5V77.1z"/>
	<path class="st0" d="M606.3,118c-0.5-1.1-1-2.3-1.3-3.5s-0.7-2.4-0.9-3.7c-2.2,2.6-4.9,4.6-8.1,6.2c-3.2,1.6-6.8,2.4-10.9,2.4
		c-6.8,0-12.1-1.8-16.1-5.5c-4-3.7-6-8.7-6-15c0-6.5,2.6-11.5,7.8-15c5.2-3.5,12.8-5.3,22.9-5.3h9.5v-6.8c0-3.3-1-5.9-2.9-7.7
		c-1.9-1.8-4.7-2.7-8.5-2.7c-2.1,0-4,0.2-5.7,0.7c-1.7,0.5-3,1.1-4,1.8l-1.2,7.4h-14l0.1-15.3c3.4-2.3,7.3-4.2,11.7-5.8
		c4.4-1.6,9.2-2.4,14.4-2.4c8.6,0,15.5,2.1,20.8,6.3c5.3,4.2,8,10.2,8,17.9v28.5c0,1.1,0,2.1,0,3c0,0.9,0.1,1.8,0.2,2.7l5.7,0.8V118
		H606.3z M590.2,105.5c2.8,0,5.4-0.6,7.7-1.8s4.1-2.7,5.4-4.6V88.6h-9.5c-4,0-7,0.9-9,2.8c-2,1.9-3.1,4.1-3.1,6.7
		c0,2.3,0.8,4.2,2.3,5.5C585.4,104.9,587.5,105.5,590.2,105.5z"/>
	<path class="st0" d="M686.6,72.6h-12.5l-2-8.6c-1.3-1-2.9-1.9-4.8-2.6c-1.9-0.7-4.1-1-6.4-1c-3.3,0-5.9,0.7-7.8,2.2
		c-1.9,1.5-2.9,3.3-2.9,5.5c0,2.1,0.9,3.8,2.7,5.2c1.8,1.4,5.5,2.6,11,3.7c8.6,1.7,14.9,4.2,19,7.5c4.1,3.3,6.2,7.8,6.2,13.6
		c0,6.2-2.7,11.3-8,15.2c-5.3,3.9-12.4,5.9-21.1,5.9c-5.3,0-10.2-0.8-14.6-2.3c-4.4-1.6-8.4-3.8-11.8-6.7l-0.2-15.5h13l2.6,9
		c1.1,0.9,2.6,1.6,4.5,2.1c1.9,0.4,3.9,0.7,6,0.7c3.8,0,6.7-0.7,8.6-2c2-1.4,3-3.2,3-5.6c0-2-1-3.8-3-5.3c-2-1.5-5.7-2.8-11-4
		c-8.1-1.7-14.3-4.1-18.4-7.4c-4.1-3.3-6.2-7.7-6.2-13.3c0-5.8,2.4-10.8,7.1-15c4.8-4.2,11.6-6.3,20.4-6.3c5.4,0,10.4,0.7,15.2,2.2
		c4.8,1.4,8.5,3.3,11.3,5.6L686.6,72.6z"/>
	<path class="st0" d="M726.8,119.3c-10,0-17.9-3.2-23.9-9.6c-6-6.4-8.9-14.5-8.9-24.3v-2.6c0-10.3,2.8-18.7,8.5-25.3
		s13.2-9.9,22.7-9.9c9.3,0,16.6,2.8,21.7,8.4c5.1,5.6,7.7,13.2,7.7,22.8V89h-41.2l-0.1,0.4c0.3,4.6,1.9,8.3,4.6,11.2
		c2.7,2.9,6.4,4.4,11,4.4c4.1,0,7.6-0.4,10.3-1.2c2.7-0.8,5.7-2.1,8.9-3.9l5,11.5c-2.9,2.3-6.5,4.1-11.1,5.7
		C737.4,118.5,732.4,119.3,726.8,119.3z M725.1,62c-3.4,0-6.2,1.3-8.2,4c-2,2.6-3.2,6.1-3.7,10.4l0.2,0.3h22.9V75
		c0-4-0.9-7.1-2.8-9.5C731.7,63.2,728.9,62,725.1,62z"/>
</g>
<g>
	<g>
		<defs>
			<circle id="SVGID_1_" cx="55" cy="25.1" r="10.5"/>
		</defs>
		<clipPath id="SVGID_00000061469796679492428060000007276373281412974260_">
			<use xlink:href="#SVGID_1_"  style="overflow:visible;"/>
		</clipPath>
		<g style="clip-path:url(#SVGID_00000061469796679492428060000007276373281412974260_);">
			<defs>
				<rect id="SVGID_00000099624271536747753500000009928489509220110222_" x="-561.2" y="-401" width="1882.5" height="1307.3"/>
			</defs>
			<clipPath id="SVGID_00000112614439567908343160000010663411920658281118_">
				<use xlink:href="#SVGID_00000099624271536747753500000009928489509220110222_"  style="overflow:visible;"/>
			</clipPath>
			
				<rect x="38" y="8.1" style="clip-path:url(#SVGID_00000112614439567908343160000010663411920658281118_);fill:#FF9C84;" width="34" height="34"/>
		</g>
	</g>
	<g>
		<defs>
			<circle id="SVGID_00000147934553515513355880000011177717331585669517_" cx="82.9" cy="25.1" r="10.5"/>
		</defs>
		<clipPath id="SVGID_00000127728216404103822760000000524018929999805831_">
			<use xlink:href="#SVGID_00000147934553515513355880000011177717331585669517_"  style="overflow:visible;"/>
		</clipPath>
		<g style="clip-path:url(#SVGID_00000127728216404103822760000000524018929999805831_);">
			<defs>
				<rect id="SVGID_00000084519869234411652810000000160165306324207035_" x="-561.2" y="-401" width="1882.5" height="1307.3"/>
			</defs>
			<clipPath id="SVGID_00000096021654485719030170000016758764825844521344_">
				<use xlink:href="#SVGID_00000084519869234411652810000000160165306324207035_"  style="overflow:visible;"/>
			</clipPath>
			
				<rect x="65.9" y="8.1" style="clip-path:url(#SVGID_00000096021654485719030170000016758764825844521344_);fill:#F95932;" width="34" height="34"/>
		</g>
	</g>
	<g>
		<defs>
			<circle id="SVGID_00000168103497280388503600000001267590316024014508_" cx="55" cy="53" r="10.5"/>
		</defs>
		<clipPath id="SVGID_00000017487355107855306350000018337082815892566667_">
			<use xlink:href="#SVGID_00000168103497280388503600000001267590316024014508_"  style="overflow:visible;"/>
		</clipPath>
		<g style="clip-path:url(#SVGID_00000017487355107855306350000018337082815892566667_);">
			<defs>
				<rect id="SVGID_00000112621845929426278330000000635270921924204188_" x="-561.2" y="-401" width="1882.5" height="1307.3"/>
			</defs>
			<clipPath id="SVGID_00000016767725722907315880000007483973112469113789_">
				<use xlink:href="#SVGID_00000112621845929426278330000000635270921924204188_"  style="overflow:visible;"/>
			</clipPath>
			
				<rect x="38" y="36" style="clip-path:url(#SVGID_00000016767725722907315880000007483973112469113789_);fill:#0423DD;" width="34" height="34"/>
		</g>
	</g>
	<g>
		<defs>
			<circle id="SVGID_00000115484315510645606580000016168493718641100711_" cx="82.9" cy="53" r="10.5"/>
		</defs>
		<clipPath id="SVGID_00000066513656317335619030000005631878219446053280_">
			<use xlink:href="#SVGID_00000115484315510645606580000016168493718641100711_"  style="overflow:visible;"/>
		</clipPath>
		<g style="clip-path:url(#SVGID_00000066513656317335619030000005631878219446053280_);">
			<defs>
				<rect id="SVGID_00000017487740888731279800000001750097314945715362_" x="-561.2" y="-401" width="1882.5" height="1307.3"/>
			</defs>
			<clipPath id="SVGID_00000138531733977660248390000007687684720234129076_">
				<use xlink:href="#SVGID_00000017487740888731279800000001750097314945715362_"  style="overflow:visible;"/>
			</clipPath>
			
				<rect x="65.9" y="36" style="clip-path:url(#SVGID_00000138531733977660248390000007687684720234129076_);fill:#F95932;" width="34" height="34"/>
		</g>
	</g>
	<g>
		<defs>
			<circle id="SVGID_00000066501154231995071290000018004078312633893556_" cx="55" cy="80.9" r="10.5"/>
		</defs>
		<clipPath id="SVGID_00000064312476682234951760000011877972425824194956_">
			<use xlink:href="#SVGID_00000066501154231995071290000018004078312633893556_"  style="overflow:visible;"/>
		</clipPath>
		<g style="clip-path:url(#SVGID_00000064312476682234951760000011877972425824194956_);">
			<defs>
				<rect id="SVGID_00000132059795745123252490000000746074059547364790_" x="-561.2" y="-401" width="1882.5" height="1307.3"/>
			</defs>
			<clipPath id="SVGID_00000037690690178897970680000007330074167576656312_">
				<use xlink:href="#SVGID_00000132059795745123252490000000746074059547364790_"  style="overflow:visible;"/>
			</clipPath>
			
				<rect x="38" y="63.9" style="clip-path:url(#SVGID_00000037690690178897970680000007330074167576656312_);fill:#F95932;" width="34" height="34"/>
		</g>
	</g>
	<g>
		<defs>
			<circle id="SVGID_00000031189047485750749840000004175640909083771551_" cx="27.1" cy="53" r="10.5"/>
		</defs>
		<clipPath id="SVGID_00000057122548591896049070000006663449801144635021_">
			<use xlink:href="#SVGID_00000031189047485750749840000004175640909083771551_"  style="overflow:visible;"/>
		</clipPath>
		<g style="clip-path:url(#SVGID_00000057122548591896049070000006663449801144635021_);">
			<defs>
				<rect id="SVGID_00000160911672662373008510000018365278444469531304_" x="-561.2" y="-401" width="1882.5" height="1307.3"/>
			</defs>
			<clipPath id="SVGID_00000005255224262393548920000017804118496808449427_">
				<use xlink:href="#SVGID_00000160911672662373008510000018365278444469531304_"  style="overflow:visible;"/>
			</clipPath>
			
				<rect x="10.1" y="36" style="clip-path:url(#SVGID_00000005255224262393548920000017804118496808449427_);fill:#F95932;" width="34" height="34"/>
		</g>
	</g>
	<g>
		<defs>
			<circle id="SVGID_00000181046904976715886390000002179134333340126340_" cx="27.1" cy="80.9" r="10.5"/>
		</defs>
		<clipPath id="SVGID_00000158735379088608352820000007807051963455787416_">
			<use xlink:href="#SVGID_00000181046904976715886390000002179134333340126340_"  style="overflow:visible;"/>
		</clipPath>
		<g style="clip-path:url(#SVGID_00000158735379088608352820000007807051963455787416_);">
			<defs>
				<rect id="SVGID_00000068655801366109207090000016770041832071850886_" x="-561.2" y="-401" width="1882.5" height="1307.3"/>
			</defs>
			<clipPath id="SVGID_00000047756689107508226770000009412660007790384770_">
				<use xlink:href="#SVGID_00000068655801366109207090000016770041832071850886_"  style="overflow:visible;"/>
			</clipPath>
			
				<rect x="10.1" y="63.9" style="clip-path:url(#SVGID_00000047756689107508226770000009412660007790384770_);fill:#8A9AFF;" width="34" height="34"/>
		</g>
	</g>
	<g>
		<defs>
			<circle id="SVGID_00000141441440766568243140000000160860271291221634_" cx="82.9" cy="80.9" r="10.5"/>
		</defs>
		<clipPath id="SVGID_00000019666024077947201610000003207380284130412425_">
			<use xlink:href="#SVGID_00000141441440766568243140000000160860271291221634_"  style="overflow:visible;"/>
		</clipPath>
		<g style="clip-path:url(#SVGID_00000019666024077947201610000003207380284130412425_);">
			<defs>
				<rect id="SVGID_00000027571006307302684770000005824406594273740440_" x="-561.2" y="-401" width="1882.5" height="1307.3"/>
			</defs>
			<clipPath id="SVGID_00000062185734084951275430000002109766804087854988_">
				<use xlink:href="#SVGID_00000027571006307302684770000005824406594273740440_"  style="overflow:visible;"/>
			</clipPath>
			
				<rect x="65.9" y="63.9" style="clip-path:url(#SVGID_00000062185734084951275430000002109766804087854988_);fill:#FF9C84;" width="34" height="34"/>
		</g>
	</g>
	<g>
		<defs>
			<circle id="SVGID_00000062161932029747569570000001679552555045029251_" cx="110.8" cy="53" r="10.5"/>
		</defs>
		<clipPath id="SVGID_00000059312349829308271580000000218485337112369544_">
			<use xlink:href="#SVGID_00000062161932029747569570000001679552555045029251_"  style="overflow:visible;"/>
		</clipPath>
		<g style="clip-path:url(#SVGID_00000059312349829308271580000000218485337112369544_);">
			<defs>
				<rect id="SVGID_00000019654642064853971590000001580474760787488952_" x="-561.2" y="-401" width="1882.5" height="1307.3"/>
			</defs>
			<clipPath id="SVGID_00000181786242809990354760000007891209749056442032_">
				<use xlink:href="#SVGID_00000019654642064853971590000001580474760787488952_"  style="overflow:visible;"/>
			</clipPath>
			
				<rect x="93.8" y="36" style="clip-path:url(#SVGID_00000181786242809990354760000007891209749056442032_);fill:#8092FF;" width="34" height="34"/>
		</g>
	</g>
	<g>
		<defs>
			<circle id="SVGID_00000128469990665893270460000012905571145757429130_" cx="110.8" cy="80.9" r="10.5"/>
		</defs>
		<clipPath id="SVGID_00000006690995495270047860000005474637954180793261_">
			<use xlink:href="#SVGID_00000128469990665893270460000012905571145757429130_"  style="overflow:visible;"/>
		</clipPath>
		<g style="clip-path:url(#SVGID_00000006690995495270047860000005474637954180793261_);">
			<defs>
				<rect id="SVGID_00000013905256276463698020000018056811375266697136_" x="-561.2" y="-401" width="1882.5" height="1307.3"/>
			</defs>
			<clipPath id="SVGID_00000163056994648209134750000006186594781933928102_">
				<use xlink:href="#SVGID_00000013905256276463698020000018056811375266697136_"  style="overflow:visible;"/>
			</clipPath>
			
				<rect x="93.8" y="63.9" style="clip-path:url(#SVGID_00000163056994648209134750000006186594781933928102_);fill:#F95932;" width="34" height="34"/>
		</g>
	</g>
	<g>
		<defs>
			<circle id="SVGID_00000047749372643114844760000017722184212656255884_" cx="55" cy="108.8" r="10.5"/>
		</defs>
		<clipPath id="SVGID_00000018212141371519079770000010161032963411394953_">
			<use xlink:href="#SVGID_00000047749372643114844760000017722184212656255884_"  style="overflow:visible;"/>
		</clipPath>
		<g style="clip-path:url(#SVGID_00000018212141371519079770000010161032963411394953_);">
			<defs>
				<rect id="SVGID_00000090254910863761487050000001077856900757592740_" x="-561.2" y="-401" width="1882.5" height="1307.3"/>
			</defs>
			<clipPath id="SVGID_00000170982341547877328550000011556581932964061866_">
				<use xlink:href="#SVGID_00000090254910863761487050000001077856900757592740_"  style="overflow:visible;"/>
			</clipPath>
			
				<rect x="38" y="91.8" style="clip-path:url(#SVGID_00000170982341547877328550000011556581932964061866_);fill:#FF9C84;" width="34" height="34"/>
		</g>
	</g>
	<g>
		<defs>
			<circle id="SVGID_00000126284811353532287320000013328189047227850138_" cx="82.9" cy="108.8" r="10.5"/>
		</defs>
		<clipPath id="SVGID_00000183232664080886163190000000594656755523850631_">
			<use xlink:href="#SVGID_00000126284811353532287320000013328189047227850138_"  style="overflow:visible;"/>
		</clipPath>
		<g style="clip-path:url(#SVGID_00000183232664080886163190000000594656755523850631_);">
			<defs>
				<rect id="SVGID_00000024716970623686083220000005511430458092430997_" x="-561.2" y="-401" width="1882.5" height="1307.3"/>
			</defs>
			<clipPath id="SVGID_00000021838353875028765710000015002072594344414093_">
				<use xlink:href="#SVGID_00000024716970623686083220000005511430458092430997_"  style="overflow:visible;"/>
			</clipPath>
			
				<rect x="65.9" y="91.8" style="clip-path:url(#SVGID_00000021838353875028765710000015002072594344414093_);fill:#0423DD;" width="34" height="34"/>
		</g>
	</g>
</g>
<g>
	<path class="st25" d="M384.2,160.3v-25h4.5v9.7h12v-9.7h4.4v25h-4.4v-11.2h-12v11.2H384.2z"/>
	<path class="st25" d="M418.3,160.3v-25h15.9v4h-11.4v5.9h10.7v4h-10.7v6.9h11.7v4H418.3z"/>
	<path class="st25" d="M447.8,160.3l10.4-25h3.8l10.4,25h-4.7l-2-5h-11.1l-2,5H447.8z M455.9,151.6h8.3l-4.2-10.2L455.9,151.6z"/>
	<path class="st25" d="M485.7,160.3v-25h4.5v20.9h9.9v4H485.7z"/>
	<path class="st25" d="M520.1,160.3v-20.9h-6.8v-4h18v4h-6.8v20.9H520.1z"/>
	<path class="st25" d="M544.6,160.3v-25h4.5v9.7h12v-9.7h4.4v25h-4.4v-11.2h-12v11.2H544.6z"/>
</g>
<g>
	<g>
		<path class="st26" d="M231.8,135.6h4.4v25h-4.4V135.6z"/>
		<path class="st26" d="M242.8,135.6H254c3.1,0,5.6,0.9,7.2,2.5c1.3,1.4,2.1,3.2,2.1,5.4v0.1c0,4.1-2.5,6.6-6,7.6l6.7,9.5h-5.2
			l-6.1-8.7h-5.5v8.7h-4.4V135.6z M253.6,147.9c3.1,0,5.1-1.6,5.1-4.2v-0.1c0-2.7-1.9-4.1-5.2-4.1h-6.4v8.4H253.6z"/>
		<path class="st26" d="M274.7,139.6h-7.9v-4.1H287v4.1h-7.9v20.9h-4.4V139.6z"/>
		<path class="st26" d="M315.5,135.6h11.1c3.1,0,5.6,0.9,7.2,2.5c1.3,1.4,2.1,3.2,2.1,5.4v0.1c0,4.1-2.5,6.6-6,7.6l6.7,9.5h-5.2
			l-6.1-8.7h-5.5v8.7h-4.4V135.6z M326.3,147.9c3.1,0,5.1-1.6,5.1-4.2v-0.1c0-2.7-1.9-4.1-5.2-4.1h-6.4v8.4H326.3z"/>
		<path class="st26" d="M341.3,135.6h18.5v3.9h-14.1v6.5h12.5v3.9h-12.5v6.7H360v3.9h-18.7V135.6z"/>
		<polygon class="st26" points="300.2,135.4 296.1,135.4 296.1,135.4 306.5,160.5 311.2,160.5 		"/>
		<polygon class="st26" points="212.7,160.5 216.8,160.5 216.8,160.5 206.4,135.4 201.7,135.4 		"/>
	</g>
	<polygon class="st25" points="285.6,160.5 290.1,160.5 298.4,140.9 294.2,140.9 	"/>
	<polygon class="st25" points="227.3,135.4 222.8,135.4 214.5,155 218.7,155 	"/>
</g>
<g>
	<path class="st0" d="M163,160.3l9.6-25.1h4.8l9.5,25.1h-4.4l-2.5-6.5h-10.1l-2.5,6.5H163z M170.6,150.6h8.7l-4.4-11.5L170.6,150.6z
		"/>
</g>
<g>
	<path class="st0" d="M588.1,160.7v-25.1h11.2c1.9,0,3.5,0.4,4.8,1.1c1.2,0.7,2.2,1.7,2.8,3s0.9,2.7,0.9,4.3c0,2.5-0.8,4.5-2.3,6
		c-1.5,1.5-3.6,2.3-6.3,2.3h-6.8v8.5H588.1z M592.4,148.9h6c1.7,0,3-0.4,3.8-1.3c0.9-0.9,1.3-2.1,1.3-3.6c0-1.6-0.4-2.9-1.2-3.7
		c-0.8-0.9-2-1.3-3.7-1.3h-6.2V148.9z"/>
	<path class="st0" d="M611.1,160.7v-25.1h11.5c2.8,0,4.8,0.7,6.1,2.2c1.3,1.4,1.9,3.4,1.9,5.9c0,1.8-0.4,3.3-1.3,4.5
		c-0.9,1.2-2.2,2.1-3.8,2.6c0.5,0.3,0.8,0.7,1.1,1.1c0.3,0.4,0.5,0.9,0.8,1.6l3.2,7.3h-4.4l-3.1-7c-0.3-0.7-0.6-1.2-1-1.4
		c-0.4-0.3-1.1-0.4-2-0.4h-4.7v8.9H611.1z M615.4,148.4h6.2c1.5,0,2.7-0.4,3.6-1.1c0.9-0.8,1.3-2,1.3-3.6c0-3.1-1.5-4.7-4.6-4.7
		h-6.5V148.4z"/>
	<path class="st0" d="M645.4,161.1c-4,0-6.9-1-8.9-3.1c-2-2.1-3-5.3-3-9.7c0-4.6,1-7.9,3-9.9c2-2.1,4.9-3.1,8.9-3.1c4,0,7,1,8.9,3.1
		s2.9,5.4,2.9,9.9c0,4.4-1,7.6-2.9,9.7C652.4,160.1,649.4,161.1,645.4,161.1z M645.4,157.5c2.6,0,4.6-0.7,5.8-2.2s1.9-3.8,1.9-7.1
		c0-3.5-0.6-5.9-1.9-7.3c-1.2-1.4-3.2-2.1-5.8-2.1c-2.6,0-4.5,0.7-5.7,2.1c-1.2,1.4-1.9,3.8-1.9,7.3c0,3.3,0.6,5.7,1.9,7.1
		C640.9,156.8,642.8,157.5,645.4,157.5z"/>
	<path class="st0" d="M661.4,160.7v-25.1h10.2c3.7,0,6.5,1,8.3,2.9s2.7,5.2,2.7,9.8c0,4.3-0.9,7.4-2.6,9.4c-1.8,2-4.5,3-8.3,3H661.4
		z M665.6,157.5h5.3c1.6,0,3-0.2,4.1-0.7c1.1-0.5,1.9-1.4,2.5-2.7c0.5-1.3,0.8-3.2,0.8-5.7c0-2.5-0.2-4.4-0.7-5.7s-1.3-2.3-2.4-2.8
		c-1.1-0.5-2.5-0.8-4.3-0.8h-5.3V157.5z"/>
	<path class="st0" d="M697.4,161.1c-3.5,0-6.1-0.8-8-2.5c-1.9-1.7-2.9-4.1-2.9-7.2v-15.8h4.2v15.6c0,2.1,0.6,3.7,1.7,4.7
		c1.2,1,2.8,1.6,4.9,1.6c2.1,0,3.7-0.5,4.9-1.6c1.2-1,1.7-2.6,1.7-4.7v-15.6h4.2v15.8c0,3.1-0.9,5.5-2.8,7.2
		C703.5,160.3,700.8,161.1,697.4,161.1z"/>
	<path class="st0" d="M724.7,161.1c-4.1,0-7.3-1.1-9.4-3.4c-2.1-2.3-3.2-5.3-3.2-9.2c0-2.8,0.4-5.1,1.3-7.1c0.9-2,2.3-3.5,4.1-4.6
		c1.8-1.1,4.2-1.6,7.1-1.6c1.5,0,2.8,0.1,4,0.3c1.2,0.2,2.3,0.5,3.4,0.9v3.7c-1-0.4-2.1-0.7-3.3-1c-1.2-0.2-2.4-0.3-3.7-0.3
		c-3.1,0-5.3,0.8-6.6,2.5c-1.3,1.7-1.9,4.1-1.9,7.2c0,2.9,0.7,5.2,2.1,6.7c1.4,1.5,3.6,2.3,6.5,2.3c1.2,0,2.4-0.1,3.6-0.3
		c1.2-0.2,2.3-0.5,3.4-0.9v3.7c-1,0.3-2.2,0.6-3.4,0.8C727.5,161,726.2,161.1,724.7,161.1z"/>
	<path class="st0" d="M742.7,160.7V139h-8v-3.3h20.3v3.3h-8v21.8H742.7z"/>
</g>
</svg>
