<?xml version="1.0" encoding="utf-8"?>
<!-- Generator: Adobe Illustrator 26.0.2, SVG Export Plug-In . SVG Version: 6.00 Build 0)  -->
<svg version="1.1" id="Layer_1" xmlns="http://www.w3.org/2000/svg" xmlns:xlink="http://www.w3.org/1999/xlink" x="0px" y="0px"
	 viewBox="0 0 512 512" style="enable-background:new 0 0 512 512;" xml:space="preserve">
<style type="text/css">
	.st0{fill:#030104;}
</style>
<g>
	<path d="M421.4,245.9c0-7.7-6.2-13.9-13.9-13.9c-7.7,0-13.9,6.2-13.9,13.9c0,75.9-61.7,137.6-137.6,137.6s-137.6-61.7-137.6-137.6
		c0-7.7-6.2-13.9-13.9-13.9s-13.9,6.2-13.9,13.9c0,86.5,66.8,157.8,151.5,164.8v49.1h-61.9c-7.7,0-13.9,6.2-13.9,13.9
		c0,7.7,6.2,13.9,13.9,13.9h151.5c7.7,0,13.9-6.2,13.9-13.9c0-7.7-6.2-13.9-13.9-13.9h-61.9v-49.1
		C354.6,403.7,421.4,332.5,421.4,245.9z"/>
	<path d="M256,335.6c49.4,0,89.7-40.2,89.7-89.7V114c0-49.4-40.2-89.7-89.7-89.7c-49.4,0-89.7,40.2-89.7,89.7v132
		C166.3,295.4,206.6,335.6,256,335.6z M194.1,114c0-34.1,27.8-61.9,61.9-61.9c34.1,0,61.9,27.8,61.9,61.9v132
		c0,34.1-27.8,61.9-61.9,61.9c-34.1,0-61.9-27.8-61.9-61.9C194.1,245.9,194.1,114,194.1,114z"/>
</g>
</svg>
