<?xml version="1.0" encoding="utf-8"?>
<!-- Generator: Adobe Illustrator 26.0.2, SVG Export Plug-In . SVG Version: 6.00 Build 0)  -->
<svg version="1.1" id="Layer_1" xmlns="http://www.w3.org/2000/svg" xmlns:xlink="http://www.w3.org/1999/xlink" x="0px" y="0px"
	 viewBox="0 0 512 512" style="enable-background:new 0 0 512 512;" xml:space="preserve">
<style type="text/css">
	.st0{fill:#FFFFFF;}
</style>
<g>
	<g>
		<g>
			<g>
				<path class="st0" d="M365.6,205.5h-10.5c-4.3,0-7.8,3.5-7.8,7.8c0,4.3,3.5,7.8,7.8,7.8h10.5c4.3,0,7.8-3.5,7.8-7.8
					C373.5,209,370,205.5,365.6,205.5z"/>
				<path class="st0" d="M310.7,255.2c0-4.3-3.5-7.8-7.8-7.8H135.4c-4.3,0-7.8,3.5-7.8,7.8c0,4.3,3.5,7.8,7.8,7.8h167.4
					C307.2,263,310.7,259.5,310.7,255.2z"/>
				<path class="st0" d="M135.4,404.3c-4.3,0-7.8,3.5-7.8,7.8c0,4.3,3.5,7.8,7.8,7.8h41.9c4.3,0,7.8-3.5,7.8-7.8
					c0-4.3-3.5-7.8-7.8-7.8H135.4L135.4,404.3z"/>
				<path class="st0" d="M342.6,429.4c5.4,7.2,14,11.5,23,11.5s17.6-4.3,23-11.5l109.9-146.5c9.5-12.7,6.9-30.8-5.8-40.3
					c-12.7-9.5-30.8-6.9-40.3,5.8l-5.8,7.7V35.4c0-15.9-12.9-28.8-28.8-28.8H83.1c-15.9,0-28.8,12.9-28.8,28.8V38H36
					C20.1,38,7.2,50.9,7.2,66.8v376.7c0,15.9,12.9,28.8,28.8,28.8h18.3v2.6c0,15.9,12.9,28.8,28.8,28.8h334.8
					c15.9,0,28.8-12.9,28.8-28.8v-83.7c0-4.3-3.5-7.8-7.8-7.8s-7.8,3.5-7.8,7.8v83.7c0,7.2-5.9,13.1-13.1,13.1H83.1
					c-7.2,0-13.1-5.9-13.1-13.1V140.1c0-4.3-3.5-7.8-7.8-7.8s-7.8,3.5-7.8,7.8v316.5H36c-7.2,0-13.1-5.9-13.1-13.1V66.8
					c0-7.2,5.9-13.1,13.1-13.1h18.3v54.9c0,4.3,3.5,7.8,7.8,7.8s7.8-3.5,7.8-7.8V35.4c0-7.2,5.9-13.1,13.1-13.1h334.8
					c7.2,0,13.1,5.9,13.1,13.1v240.7c0,0.3,0,0.5,0,0.8l-65.4,87.3l-24.1-32.1c-4.6-6.1-11.3-10.1-19-11.2
					c-7.6-1.1-15.2,0.9-21.3,5.5c-6.1,4.6-10.1,11.3-11.2,19c-1.1,7.6,0.9,15.2,5.5,21.3L342.6,429.4z M305.6,347.5
					c0.5-3.5,2.3-6.5,5.1-8.6c2.3-1.7,5-2.6,7.8-2.6c0.6,0,1.2,0,1.9,0.1c3.5,0.5,6.5,2.3,8.6,5.1l30.3,40.5c1.5,2,3.8,3.1,6.3,3.1
					s4.8-1.2,6.3-3.1L465,257.8c4.3-5.8,12.5-6.9,18.3-2.6c5.8,4.3,6.9,12.5,2.6,18.3L376.1,420c0,0,0,0,0,0
					c-2.5,3.3-6.4,5.2-10.5,5.2c-4.1,0-8-2-10.5-5.2l-47.1-62.8C306,354.4,305.1,351,305.6,347.5z"/>
				<path class="st0" d="M258.4,370.3c0-4.3-3.5-7.8-7.8-7.8H135.4c-4.3,0-7.8,3.5-7.8,7.8s3.5,7.8,7.8,7.8h115.1
					C254.8,378.1,258.4,374.6,258.4,370.3z"/>
				<path class="st0" d="M193,142.7c-4.3,0-7.8,3.5-7.8,7.8c0,4.3,3.5,7.8,7.8,7.8h115.1c4.3,0,7.8-3.5,7.8-7.8
					c0-4.3-3.5-7.8-7.8-7.8H193z"/>
				<path class="st0" d="M135.4,221.2h167.4c4.3,0,7.8-3.5,7.8-7.8c0-4.3-3.5-7.8-7.8-7.8H135.4c-4.3,0-7.8,3.5-7.8,7.8
					C127.6,217.6,131.1,221.2,135.4,221.2z"/>
				<path class="st0" d="M365.6,100.8H135.4c-4.3,0-7.8,3.5-7.8,7.8s3.5,7.8,7.8,7.8h230.2c4.3,0,7.8-3.5,7.8-7.8
					C373.5,104.3,370,100.8,365.6,100.8z"/>
				<path class="st0" d="M365.6,247.3h-10.5c-4.3,0-7.8,3.5-7.8,7.8c0,4.3,3.5,7.8,7.8,7.8h10.5c4.3,0,7.8-3.5,7.8-7.8
					C373.5,250.8,370,247.3,365.6,247.3z"/>
			</g>
		</g>
	</g>
</g>
</svg>
