<?xml version="1.0" encoding="utf-8"?>
<!-- Generator: Adobe Illustrator 26.1.0, SVG Export Plug-In . SVG Version: 6.00 Build 0)  -->
<svg version="1.1" id="Layer_1" xmlns="http://www.w3.org/2000/svg" xmlns:xlink="http://www.w3.org/1999/xlink" x="0px" y="0px"
	 viewBox="0 0 500 500" style="enable-background:new 0 0 500 500;" xml:space="preserve">
<style type="text/css">
	.st0{fill:#D9D9D9;}
</style>
<g>
	<path class="st0" d="M349.4,233.1c0-18-7.5-27.1-25.5-29.8c-5.2-0.8-5.7-3-5.7-7.2c0.1-7.6,0.1-15.3,0-22.9
		c-0.6-37.8-30.3-67.5-67.8-67.7c-37.9-0.2-68,29.5-68.7,67.7c-0.1,7.6-0.1,15.3,0,22.9c0.1,4.1-0.6,6.4-5.7,7.2
		c-17.9,2.7-25.4,11.9-25.5,29.8c-0.1,33.6-0.1,67.3,0,100.9c0,21.3,9.9,31.2,31.6,31.3c22.6,0.1,45.2,0,67.9,0c0,0,0,0,0,0
		c23.5,0,47.1,0.2,70.6-0.1c18.6-0.3,28.8-10.8,28.8-29.4C349.4,301.6,349.4,267.4,349.4,233.1z M198.8,195.7
		c0.7-10.3-0.9-20.7,1.1-31c5-25.7,28.3-44.1,53.2-41.9c27.1,2.4,47,23.1,47.9,50c0.2,7.6-0.2,15.3,0.2,22.9
		c0.3,5.5-1.5,7.5-7.2,7.4c-14.7-0.3-29.3-0.1-43.9-0.1c-14.7,0-29.3-0.2-44,0.1C200.4,203.2,198.4,201.3,198.8,195.7z M332.2,334.2
		c0,10.7-3,13.6-13.6,13.7c-45.9,0.1-91.8,0.1-137.6,0c-10.1,0-13.2-3-13.2-13.2c-0.1-33.6-0.1-67.3,0-100.9
		c0-10.1,3.1-13.1,13.2-13.2c23.2-0.1,46.5,0,69.7,0c22.6,0,45.3-0.1,67.9,0c10.7,0,13.6,2.9,13.7,13.7
		C332.3,267.5,332.3,300.8,332.2,334.2z M282.3,257.3c-3.1-2.2-4.6,1.9-6.4,3.6c-9,8.7-18,17.4-26.5,26.6c-4.4,4.8-7.5,6-12.1,0.3
		c-4-5-9.3-8.8-13.4-13.8c-5-6.1-7.6-1.4-10.7,1.7c-3,3-7.8,5.3-1.9,10.6c9.5,8.6,18.4,17.9,27.2,27.1c3.4,3.6,5.8,4.1,9.5,0.2
		c13.6-14,27.5-27.7,41.2-41.5c1.2-1.2,2.2-2.8,3.4-4.3C289.2,264.1,286.2,260.1,282.3,257.3z"/>
	<path class="st0" d="M94.6,420.6c0,6.1-0.3,11.3,0.1,16.4c0.5,7.8-4.9,6-9.2,6.2c-4.4,0.2-8.4,0.6-8.2-6.2
		c0.4-13.7,0.3-27.5,0.1-41.3c-0.1-4.7,1.4-6.5,6.2-6.4c14.1,0.2,28.1,0.2,42.2,0.1c8.1-0.1,5,5.9,5.5,9.8c0.5,4.1,0.7,8.1-5.7,7.5
		c-5.1-0.4-10.2-0.1-15.4-0.1c0,3.6,2.5,4.7,4.3,6.1c63,50,133.3,63.1,208.6,35.6c75.5-27.6,120.5-83.7,135.5-162.5
		c8.7-45.7,1.8-90.3-20.1-131.7c-5-9.4,0.5-10.5,6-13.9c7.7-4.7,8.1,2.6,9.9,6.2c70.9,138.9-16.4,308-170.6,330.1
		c-67.8,9.7-128.4-7.6-181.4-51.3c-1.4-1.2-2.8-2.3-4.3-3.4C97.4,421.4,96.8,421.3,94.6,420.6z"/>
	<path class="st0" d="M391.6,93.9c-8.5-9.5-17.4-15.5-26.2-21.3C238.2-9.8,67.4,64.5,41.5,213.8c-8,46.2-1.4,90.7,19.9,132.7
		c3.5,6.9-1.3,14.8-9.2,15.1c-4.1,0.2-4.4-3.8-5.7-6.2c-21.6-42.3-30-87.1-23.6-134.2C37,117.1,113.9,38.6,218,23.5
		c64.6-9.3,123,7.3,174.6,47.3c3.7,2.9,7.4,5.9,11.4,9.2c2.1-4.8,1.1-8.8,1.2-12.6c0.2-9.9,4.5-13,14.2-10.3
		c2.8,0.8,3.1,2.5,3.1,4.7c0,14.7-0.1,29.3,0.1,44c0,4.1-1.8,5.2-5.5,5.2c-14.4-0.1-28.7-0.1-43.1,0c-7.4,0.1-5.1-5.4-5.2-9.1
		c-0.1-3.6-1.6-8.5,5.2-8.1C379.1,94.1,384.2,93.9,391.6,93.9z"/>
	<path class="st0" d="M292.8,267.8c-1.2,1.5-2.2,3-3.4,4.3c-13.8,13.8-27.7,27.5-41.2,41.5c-3.8,3.9-6.1,3.3-9.5-0.2
		c-8.9-9.2-17.8-18.5-27.2-27.1c-5.9-5.4-1-7.6,1.9-10.6c3-3.1,5.7-7.8,10.7-1.7c4,4.9,9.4,8.8,13.4,13.8c4.6,5.7,7.7,4.5,12.1-0.3
		c8.5-9.2,17.5-17.8,26.5-26.6c1.7-1.7,3.3-5.8,6.4-3.6C286.2,260.1,289.2,264.1,292.8,267.8z"/>
	<path class="st0" d="M292.8,267.8c-1.2,1.5-2.2,3-3.4,4.3c-13.8,13.8-27.7,27.5-41.2,41.5c-3.8,3.9-6.1,3.3-9.5-0.2
		c-8.9-9.2-17.8-18.5-27.2-27.1c-5.9-5.4-1-7.6,1.9-10.6c3-3.1,5.7-7.8,10.7-1.7c4,4.9,9.4,8.8,13.4,13.8c4.6,5.7,7.7,4.5,12.1-0.3
		c8.5-9.2,17.5-17.8,26.5-26.6c1.7-1.7,3.3-5.8,6.4-3.6C286.2,260.1,289.2,264.1,292.8,267.8z"/>
</g>
</svg>
