<?xml version="1.0" encoding="utf-8"?>
<!-- Generator: Adobe Illustrator 26.0.2, SVG Export Plug-In . SVG Version: 6.00 Build 0)  -->
<svg version="1.1" id="Layer_1" xmlns="http://www.w3.org/2000/svg" xmlns:xlink="http://www.w3.org/1999/xlink" x="0px" y="0px"
	 viewBox="0 0 512 512" style="enable-background:new 0 0 512 512;" xml:space="preserve">
<style type="text/css">
	.st0{fill:#FFFFFF;}
</style>
<g>
	<path class="st0" d="M112.3,249.6h168.5c6,0,10.9-4.9,10.9-10.9c0-6-4.9-10.9-10.9-10.9H112.3c-6,0-10.9,4.9-10.9,10.9
		C101.5,244.7,106.3,249.6,112.3,249.6z"/>
	<path class="st0" d="M213.2,298.5H112.3c-6,0-10.9,4.9-10.9,10.9s4.9,10.9,10.9,10.9h100.9c6,0,10.9-4.9,10.9-10.9
		S219.2,298.5,213.2,298.5z"/>
	<path class="st0" d="M401.8,274.4V86.6c0-30-24.3-54.3-54.3-54.3h-44.6V11.5c0-6-4.9-10.9-10.9-10.9c-6,0-10.9,4.9-10.9,10.9v20.8
		H133.4V11.5c0-6-4.9-10.9-10.9-10.9c-6,0-10.9,4.9-10.9,10.9v20.8H67.1c-30,0-54.3,24.3-54.3,54.3V381c0,30,24.3,54.3,54.3,54.3
		h201.2c20.9,53.6,77,84.6,133.5,74c56.5-10.6,97.4-60,97.5-117.5C499.3,333.5,457.3,284.8,401.8,274.4z M67.2,54h44.6v20.8
		c0,6,4.9,10.9,10.9,10.9c6,0,10.9-4.9,10.9-10.9V54h147.8v20.8c0,6,4.9,10.9,10.9,10.9c6,0,10.9-4.9,10.9-10.9V54h44.6
		c18,0.1,32.5,14.6,32.6,32.6v26.3H34.6V86.6C34.6,68.6,49.2,54,67.2,54z M67.2,413.6c-18-0.1-32.6-14.6-32.6-32.6V134.5h345.5
		v137.8h-0.3c-35.5,0.1-69.1,15.9-91.8,43.1c-22.7,27.3-32.1,63.2-25.8,98.1H67.2z M379.8,489.7c-54,0-97.8-43.8-97.8-97.8
		s43.8-97.8,97.8-97.8c54,0,97.8,43.8,97.8,97.8C477.5,445.8,433.8,489.6,379.8,489.7z"/>
	<path class="st0" d="M430.1,352.8l-64.6,61.6L332.2,381c-4.2-4.2-11.1-4.2-15.3,0c-4.2,4.2-4.2,11.1,0,15.3l41,41
		c2,2.1,4.8,3.2,7.7,3.2c2.8,0,5.5-1.1,7.5-3l72.2-69c2.1-2,3.3-4.7,3.3-7.6c0.1-2.9-1-5.7-3-7.7
		C441.3,348.8,434.5,348.7,430.1,352.8z"/>
</g>
</svg>
