<?xml version="1.0" encoding="utf-8"?>
<!-- Generator: Adobe Illustrator 26.0.2, SVG Export Plug-In . SVG Version: 6.00 Build 0)  -->
<svg version="1.1" id="Layer_1" xmlns="http://www.w3.org/2000/svg" xmlns:xlink="http://www.w3.org/1999/xlink" x="0px" y="0px"
	 viewBox="0 0 512 512" style="enable-background:new 0 0 512 512;" xml:space="preserve">
<style type="text/css">
	.st0{fill:#E00000;stroke:#E00000;stroke-miterlimit:10;}
	.st1{fill:#E00000;stroke:#E00000;stroke-width:28;stroke-linecap:round;stroke-miterlimit:10;}
	.st2{fill:#1A88FF;}
</style>
<g>
	<path class="st2" d="M457.8,47.8H54.2c-29.1,0-52.7,23.6-52.7,52.7v311c0,29.1,23.6,52.7,52.7,52.7h403.6
		c29.1,0,52.7-23.6,52.7-52.7v-311C510.5,71.4,486.9,47.8,457.8,47.8z M477.5,407.3c0,13.9-11,25.2-24.6,25.2H59.1
		c-13.6,0-24.6-11.3-24.6-25.2V104.7c0-13.9,11-25.2,24.6-25.2h393.8c13.6,0,24.6,11.3,24.6,25.2V407.3z"/>
	<path class="st2" d="M269.1,170c-7.1-7.1-18.7-7.1-25.8,0l-73.1,73.1c-7.3,7-7.5,18.6-0.4,25.8c7,7.3,18.6,7.5,25.8,0.4
		c0.2-0.1,0.3-0.3,0.4-0.4L238,227v102c0,10.1,8.2,18.3,18.3,18.3s18.3-8.2,18.3-18.3V227l41.9,41.9c7.3,7,18.8,6.8,25.8-0.4
		c6.8-7.1,6.8-18.3,0-25.4L269.1,170z"/>
</g>
</svg>
