<?xml version="1.0" encoding="utf-8"?>
<!-- Generator: Adobe Illustrator 26.0.2, SVG Export Plug-In . SVG Version: 6.00 Build 0)  -->
<svg version="1.1" id="Layer_1" xmlns="http://www.w3.org/2000/svg" xmlns:xlink="http://www.w3.org/1999/xlink" x="0px" y="0px"
	 viewBox="0 0 512 512" style="enable-background:new 0 0 512 512;" xml:space="preserve">
<style type="text/css">
	.st0{fill:#FFFFFF;}
</style>
<g>
	<g>
		<g>
			<path class="st0" d="M256.5,4.4C118.2,4.4,5.7,116.9,5.7,255.2c0,60.6,21.6,116.2,57.5,159.6c0.1,0.1,0.1,0.3,0.2,0.4
				c25.9,31.2,58.5,55.2,94.7,70.7c0.4,0.2,0.8,0.4,1.2,0.5c2.9,1.2,5.9,2.4,8.9,3.5c1.2,0.4,2.3,0.9,3.5,1.3
				c2.6,0.9,5.2,1.8,7.8,2.6c1.7,0.5,3.3,1.1,5,1.6c2.3,0.7,4.6,1.3,6.9,2c2,0.6,4.1,1.1,6.2,1.6c2.1,0.5,4.2,1,6.3,1.4
				c2.3,0.5,4.7,0.9,7.1,1.4c1.9,0.4,3.8,0.7,5.7,1c2.6,0.4,5.3,0.8,7.9,1.1c1.7,0.2,3.4,0.5,5.1,0.7c3,0.3,6,0.5,9.1,0.8
				c1.4,0.1,2.8,0.3,4.2,0.3c4.4,0.3,8.9,0.4,13.5,0.4s9-0.1,13.5-0.4c1.4-0.1,2.8-0.2,4.2-0.3c3-0.2,6.1-0.4,9.1-0.8
				c1.7-0.2,3.4-0.4,5.1-0.7c2.7-0.3,5.3-0.7,7.9-1.1c1.9-0.3,3.8-0.7,5.7-1c2.4-0.4,4.7-0.9,7.1-1.4c2.1-0.5,4.2-0.9,6.3-1.4
				c2.1-0.5,4.1-1,6.2-1.6c2.3-0.6,4.6-1.3,6.9-2c1.7-0.5,3.3-1,5-1.6c2.6-0.8,5.2-1.7,7.8-2.6c1.2-0.4,2.3-0.9,3.5-1.3
				c3-1.1,5.9-2.3,8.9-3.5c0.4-0.2,0.8-0.4,1.2-0.5c36.3-15.5,68.8-39.4,94.7-70.7c0.1-0.1,0.1-0.3,0.2-0.4
				c35.9-43.4,57.5-99,57.5-159.6C507.4,116.9,394.8,4.4,256.5,4.4z M358.2,466.1c-0.1,0.1-0.2,0.1-0.4,0.2c-3,1.4-6,2.8-9.1,4.1
				c-0.7,0.3-1.4,0.6-2.1,0.9c-2.7,1.1-5.4,2.2-8.1,3.2c-1.1,0.4-2.3,0.8-3.4,1.2c-2.4,0.9-4.8,1.7-7.3,2.5
				c-1.5,0.5-3.1,0.9-4.6,1.4c-2.2,0.7-4.4,1.3-6.6,1.9c-1.9,0.5-3.7,0.9-5.6,1.4c-2,0.5-3.9,0.9-5.9,1.4c-2.2,0.5-4.3,0.9-6.5,1.2
				c-1.8,0.3-3.5,0.7-5.3,1c-2.4,0.4-4.9,0.7-7.4,1c-1.6,0.2-3.1,0.4-4.7,0.6c-2.8,0.3-5.7,0.5-8.5,0.7c-1.3,0.1-2.5,0.2-3.8,0.3
				c-4.1,0.2-8.3,0.3-12.4,0.3c-4.2,0-8.3-0.1-12.4-0.3c-1.3-0.1-2.5-0.2-3.8-0.3c-2.8-0.2-5.7-0.4-8.5-0.7
				c-1.6-0.2-3.1-0.4-4.7-0.6c-2.5-0.3-4.9-0.6-7.4-1c-1.8-0.3-3.5-0.6-5.3-1c-2.2-0.4-4.4-0.8-6.5-1.2c-2-0.4-3.9-0.9-5.9-1.4
				c-1.9-0.5-3.7-0.9-5.6-1.4c-2.2-0.6-4.4-1.2-6.6-1.9c-1.5-0.5-3.1-0.9-4.6-1.4c-2.4-0.8-4.9-1.6-7.3-2.5
				c-1.1-0.4-2.3-0.8-3.4-1.2c-2.7-1-5.4-2.1-8.1-3.2c-0.7-0.3-1.4-0.6-2.1-0.9c-3.1-1.3-6.1-2.7-9.1-4.1c-0.1-0.1-0.2-0.1-0.4-0.2
				C125.7,452,99.9,432,79,407.6c16.2-59.5,61.9-107.5,120.8-126.6c1.2,0.7,2.4,1.3,3.6,2c0.7,0.4,1.4,0.8,2.1,1.2
				c2.5,1.3,5,2.6,7.6,3.7c2,0.9,4,1.6,6.1,2.4c0.4,0.1,0.8,0.3,1.2,0.4c11.3,4,23.5,6.3,36.2,6.3c12.7,0,24.8-2.3,36.2-6.3
				c0.4-0.1,0.8-0.3,1.2-0.4c2-0.8,4.1-1.5,6.1-2.4c2.6-1.1,5.1-2.3,7.6-3.7c0.7-0.4,1.4-0.8,2.1-1.2c1.2-0.7,2.4-1.3,3.6-2
				c58.9,19.1,104.6,67.1,120.8,126.6C413.1,431.9,387.3,452,358.2,466.1z M164.5,188.3c0-50.7,41.3-92,92-92s92,41.3,92,92
				c0,32.3-16.7,60.6-41.9,77.1c-3.3,2.1-6.7,4.1-10.2,5.7c-0.4,0.2-0.8,0.4-1.2,0.6c-24.2,11-52.9,11-77.1,0
				c-0.4-0.2-0.8-0.4-1.2-0.6c-3.5-1.7-6.9-3.6-10.2-5.7C181.3,249,164.5,220.6,164.5,188.3z M446.6,391.7
				c-19-56-62.2-101.2-117.5-122.7c22.1-19.9,36.1-48.7,36.1-80.7c0-59.9-48.8-108.7-108.7-108.7s-108.7,48.8-108.7,108.7
				c0,32,14,60.8,36.1,80.7c-55.3,21.5-98.5,66.7-117.5,122.7c-27.7-38.5-44.1-85.6-44.1-136.5c0-129.1,105-234.1,234.1-234.1
				s234.1,105,234.1,234.1C490.6,306.1,474.3,353.3,446.6,391.7z"/>
		</g>
	</g>
</g>
</svg>
