<?xml version="1.0" encoding="utf-8"?>
<!-- Generator: Adobe Illustrator 26.0.2, SVG Export Plug-In . SVG Version: 6.00 Build 0)  -->
<svg version="1.1" id="Layer_1" xmlns="http://www.w3.org/2000/svg" xmlns:xlink="http://www.w3.org/1999/xlink" x="0px" y="0px"
	 viewBox="0 0 512 512" style="enable-background:new 0 0 512 512;" xml:space="preserve">
<style type="text/css">
	.st0{fill:#030104;}
</style>
<path d="M503.5,132.1c-4.1-2.8-9.3-3.3-13.9-1.5l-139,55.6v-41.8c0-25.8-21-46.8-46.8-46.8H48.7c-25.8,0-46.8,21-46.8,46.8v223.2
	c0,25.8,21,46.8,46.8,46.8h255.1c25.8,0,46.8-21,46.8-46.8v-41.8l139,55.6c1.8,0.7,3.7,1.1,5.5,1.1c2.9,0,5.8-0.9,8.3-2.6
	c4.1-2.8,6.5-7.4,6.5-12.3V144.4C510.1,139.4,507.6,134.8,503.5,132.1L503.5,132.1z M320.8,367.6c0,9.4-7.6,17-17,17H48.7
	c-9.4,0-17-7.6-17-17V144.4c0-9.4,7.6-17,17-17h255.1c9.4,0,17,7.6,17,17V367.6z M480.3,345.6l-129.7-51.9v-75.5l129.7-51.9V345.6z"
	/>
</svg>
