<?xml version="1.0" encoding="utf-8"?>
<!-- Generator: Adobe Illustrator 26.0.2, SVG Export Plug-In . SVG Version: 6.00 Build 0)  -->
<svg version="1.1" id="Layer_1" xmlns="http://www.w3.org/2000/svg" xmlns:xlink="http://www.w3.org/1999/xlink" x="0px" y="0px"
	 viewBox="0 0 512 512" style="enable-background:new 0 0 512 512;" xml:space="preserve">
<style type="text/css">
	.st0{fill:#FFFFFF;}
</style>
<g>
	<g id="pulse_00000066491103982838983000000003944011104432686760_">
		<path id="lineart_00000125591783638215161280000000422398009482097584_" class="st0" d="M295.7,43.1c3.1-12.4,19.7-13.2,24.6-2.5
			l0.9,2.5l65.9,263.6l13.5-53.9c1.3-5.1,5.4-8.9,10.5-9.7l2.2-0.2h78.6c7.2,0,13.1,5.9,13.1,13.1c0,6.4-4.6,11.8-10.8,12.9
			l-2.4,0.2h-68.4L399.8,364c-3.1,12.4-19.7,13.2-24.6,2.5l-0.9-2.5l-65.9-263.7l-92.1,368.5c-3.1,12.4-19.7,13.2-24.6,2.5l-0.9-2.5
			l-66.2-264.7l-14.3,55.1c-1.3,5.1-5.5,8.8-10.5,9.6l-2.2,0.2H20.1C12.8,269.1,7,263.2,7,256c0-6.4,4.6-11.8,10.8-12.9l2.4-0.2
			h67.5l24.7-95c3.2-12.3,19.7-13,24.5-2.3l0.9,2.5l65.9,263.6L295.7,43.1z"/>
	</g>
</g>
</svg>
